<?xml version="1.0" encoding="us-ascii" standalone="no"?><svg xmlns="http://www.w3.org/2000/svg" xmlns:xlink="http://www.w3.org/1999/xlink" contentStyleType="text/css" height="705px" preserveAspectRatio="none" style="width:321px;height:705px;background:#FFFFFF;" version="1.1" viewBox="0 0 321 705" width="321px" zoomAndPan="magnify"><defs/><g><rect fill="none" height="22.6406" style="stroke:none;stroke-width:1.0;" width="288.5" x="15" y="12.4551"/><ellipse cx="77" cy="50.0957" fill="#222222" rx="10" ry="10" style="stroke:#222222;stroke-width:1.0;"/><rect fill="#F5EADC" height="35.0938" rx="12.5" ry="12.5" style="stroke:#6B5336;stroke-width:0.5;" width="112" x="21" y="80.0957"/><text fill="#000000" font-family="sans-serif" font-size="12" lengthAdjust="spacing" textLength="92" x="31" y="102.5527">Understand goal</text><rect fill="#F5EADC" height="35.0938" rx="12.5" ry="12.5" style="stroke:#6B5336;stroke-width:0.5;" width="102" x="26" y="135.1895"/><text fill="#000000" font-family="sans-serif" font-size="12" lengthAdjust="spacing" textLength="82" x="36" y="157.6465">Analyze context</text><rect fill="#F5EADC" height="35.0938" rx="12.5" ry="12.5" style="stroke:#6B5336;stroke-width:0.5;" width="79" x="37.5" y="344.4707"/><text fill="#000000" font-family="sans-serif" font-size="12" lengthAdjust="spacing" textLength="59" x="47.5" y="366.9277">Implement</text><rect fill="#F5EADC" height="35.0938" rx="12.5" ry="12.5" style="stroke:#6B5336;stroke-width:0.5;" width="94" x="30" y="399.5645"/><text fill="#000000" font-family="sans-serif" font-size="12" lengthAdjust="spacing" textLength="74" x="40" y="422.0215">Review result</text><polygon fill="#F5EADC" points="77,300.4707,89,312.4707,77,324.4707,65,312.4707,77,300.4707" style="stroke:#6B5336;stroke-width:0.5;"/><line style="stroke:#000000;stroke-width:1.5;" x1="15" x2="15" y1="12.4551" y2="693.4395"/><rect fill="#F5EADC" height="35.0938" rx="12.5" ry="12.5" style="stroke:#6B5336;stroke-width:0.5;" width="98" x="171.5" y="190.2832"/><text fill="#000000" font-family="sans-serif" font-size="12" lengthAdjust="spacing" textLength="78" x="181.5" y="212.7402">Ask questions</text><rect fill="#F5EADC" height="35.0938" rx="12.5" ry="12.5" style="stroke:#6B5336;stroke-width:0.5;" width="114" x="163.5" y="245.377"/><text fill="#000000" font-family="sans-serif" font-size="12" lengthAdjust="spacing" textLength="94" x="173.5" y="267.834">Validate direction</text><rect fill="#F5EADC" height="35.0938" rx="12.5" ry="12.5" style="stroke:#6B5336;stroke-width:0.5;" width="114" x="163.5" y="462.1582"/><text fill="#000000" font-family="sans-serif" font-size="12" lengthAdjust="spacing" textLength="94" x="173.5" y="484.6152">Provide feedback</text><rect fill="#F5EADC" height="35.0938" rx="12.5" ry="12.5" style="stroke:#6B5336;stroke-width:0.5;" width="115" x="163" y="517.252"/><text fill="#000000" font-family="sans-serif" font-size="12" lengthAdjust="spacing" textLength="95" x="173" y="539.709">Validate outcome</text><polygon fill="#F5EADC" points="190,572.3457,251,572.3457,263,584.3457,251,596.3457,190,596.3457,178,584.3457,190,572.3457" style="stroke:#6B5336;stroke-width:0.5;"/><text fill="#000000" font-family="sans-serif" font-size="11" lengthAdjust="spacing" textLength="61" x="190" y="588.8467">Acceptable?</text><text fill="#000000" font-family="sans-serif" font-size="11" lengthAdjust="spacing" textLength="12" x="263" y="581.9287">no</text><rect fill="#F5EADC" height="35.0938" rx="12.5" ry="12.5" style="stroke:#6B5336;stroke-width:0.5;" width="155" x="143" y="616.3457"/><text fill="#000000" font-family="sans-serif" font-size="12" lengthAdjust="spacing" textLength="135" x="153" y="638.8027">Approve or redirect focus</text><ellipse cx="220.5" cy="682.4395" fill="none" rx="11" ry="11" style="stroke:#222222;stroke-width:1.0;"/><ellipse cx="220.5" cy="682.4395" fill="#222222" rx="6" ry="6" style="stroke:#222222;stroke-width:1.0;"/><line style="stroke:#000000;stroke-width:1.5;" x1="137" x2="137" y1="12.4551" y2="693.4395"/><line style="stroke:#000000;stroke-width:1.5;" x1="302" x2="302" y1="12.4551" y2="693.4395"/><line style="stroke:#6B5336;stroke-width:1.0;" x1="77" x2="77" y1="60.0957" y2="80.0957"/><polygon fill="#6B5336" points="73,70.0957,77,80.0957,81,70.0957,77,74.0957" style="stroke:#6B5336;stroke-width:1.0;"/><line style="stroke:#6B5336;stroke-width:1.0;" x1="77" x2="77" y1="115.1895" y2="135.1895"/><polygon fill="#6B5336" points="73,125.1895,77,135.1895,81,125.1895,77,129.1895" style="stroke:#6B5336;stroke-width:1.0;"/><line style="stroke:#6B5336;stroke-width:1.0;" x1="77" x2="77" y1="379.5645" y2="399.5645"/><polygon fill="#6B5336" points="73,389.5645,77,399.5645,81,389.5645,77,393.5645" style="stroke:#6B5336;stroke-width:1.0;"/><line style="stroke:#6B5336;stroke-width:1.0;" x1="77" x2="77" y1="324.4707" y2="344.4707"/><polygon fill="#6B5336" points="73,334.4707,77,344.4707,81,334.4707,77,338.4707" style="stroke:#6B5336;stroke-width:1.0;"/><line style="stroke:#6B5336;stroke-width:1.0;" x1="220.5" x2="220.5" y1="225.377" y2="245.377"/><polygon fill="#6B5336" points="216.5,235.377,220.5,245.377,224.5,235.377,220.5,239.377" style="stroke:#6B5336;stroke-width:1.0;"/><line style="stroke:#6B5336;stroke-width:1.0;" x1="220.5" x2="220.5" y1="497.252" y2="517.252"/><polygon fill="#6B5336" points="216.5,507.252,220.5,517.252,224.5,507.252,220.5,511.252" style="stroke:#6B5336;stroke-width:1.0;"/><line style="stroke:#6B5336;stroke-width:1.0;" x1="220.5" x2="220.5" y1="552.3457" y2="572.3457"/><polygon fill="#6B5336" points="216.5,562.3457,220.5,572.3457,224.5,562.3457,220.5,566.3457" style="stroke:#6B5336;stroke-width:1.0;"/><line style="stroke:#6B5336;stroke-width:1.0;" x1="220.5" x2="220.5" y1="596.3457" y2="616.3457"/><polygon fill="#6B5336" points="216.5,606.3457,220.5,616.3457,224.5,606.3457,220.5,610.3457" style="stroke:#6B5336;stroke-width:1.0;"/><line style="stroke:#6B5336;stroke-width:1.0;" x1="220.5" x2="220.5" y1="651.4395" y2="671.4395"/><polygon fill="#6B5336" points="216.5,661.4395,220.5,671.4395,224.5,661.4395,220.5,665.4395" style="stroke:#6B5336;stroke-width:1.0;"/><line style="stroke:#6B5336;stroke-width:1.0;" x1="77" x2="77" y1="170.2832" y2="175.2832"/><line style="stroke:#6B5336;stroke-width:1.0;" x1="77" x2="220.5" y1="175.2832" y2="175.2832"/><line style="stroke:#6B5336;stroke-width:1.0;" x1="220.5" x2="220.5" y1="175.2832" y2="190.2832"/><polygon fill="#6B5336" points="216.5,180.2832,220.5,190.2832,224.5,180.2832,220.5,184.2832" style="stroke:#6B5336;stroke-width:1.0;"/><line style="stroke:#6B5336;stroke-width:1.0;" x1="77" x2="77" y1="434.6582" y2="444.6582"/><line style="stroke:#6B5336;stroke-width:1.0;" x1="77" x2="220.5" y1="444.6582" y2="444.6582"/><line style="stroke:#6B5336;stroke-width:1.0;" x1="220.5" x2="220.5" y1="444.6582" y2="462.1582"/><polygon fill="#6B5336" points="216.5,452.1582,220.5,462.1582,224.5,452.1582,220.5,456.1582" style="stroke:#6B5336;stroke-width:1.0;"/><line style="stroke:#6B5336;stroke-width:1.0;" x1="263" x2="290" y1="584.3457" y2="584.3457"/><polygon fill="#6B5336" points="286,454.6582,290,444.6582,294,454.6582,290,450.6582" style="stroke:#6B5336;stroke-width:1.0;"/><line style="stroke:#6B5336;stroke-width:1.0;" x1="290" x2="290" y1="312.4707" y2="584.3457"/><line style="stroke:#6B5336;stroke-width:1.0;" x1="290" x2="89" y1="312.4707" y2="312.4707"/><polygon fill="#6B5336" points="99,308.4707,89,312.4707,99,316.4707,95,312.4707" style="stroke:#6B5336;stroke-width:1.0;"/><line style="stroke:#6B5336;stroke-width:1.0;" x1="220.5" x2="220.5" y1="280.4707" y2="285.4707"/><line style="stroke:#6B5336;stroke-width:1.0;" x1="220.5" x2="77" y1="285.4707" y2="285.4707"/><line style="stroke:#6B5336;stroke-width:1.0;" x1="77" x2="77" y1="285.4707" y2="300.4707"/><polygon fill="#6B5336" points="73,290.4707,77,300.4707,81,290.4707,77,294.4707" style="stroke:#6B5336;stroke-width:1.0;"/><text fill="#000000" font-family="sans-serif" font-size="18" lengthAdjust="spacing" textLength="60" x="46" y="31.1406">Mentee</text><text fill="#000000" font-family="sans-serif" font-size="18" lengthAdjust="spacing" textLength="56" x="191.5" y="31.1406">Mentor</text><!--SRC=[XP0nJyCm48Lt_ugJMDgvD4Coe00B0n92WjsnByMAupFdIq9HVZmkBH100a_slVU-TtBgN8YQTG-DDjsEQGZsYZmndBNlHwLFHyrCqqaickrcKon58svqihyajiZ_kdwLRL5Rit1UEzrJi7_ZFam_QTZYkIsKccyn2EAiacWMLJw43CltO657sbUgh8Fs-rS4Gzdu8jKnGZndANNmF60IHo5bwwFspcf1i8xH7AQLOeoevQkdlEcZnpw_Sk0UHuSJCAR1VoFVCOtE8hI8zl3jIpWDOgZ7IftOC3qvZx2gZS4ekl5uiGQNO1LehG3AEiPCopdEHSVDe2Kpv8sJK7m3]--></g></svg>