<?xml version="1.0" encoding="us-ascii" standalone="no"?><svg xmlns="http://www.w3.org/2000/svg" xmlns:xlink="http://www.w3.org/1999/xlink" contentStyleType="text/css" height="563px" preserveAspectRatio="none" style="width:394px;height:563px;background:#FFFFFF;" version="1.1" viewBox="0 0 394 563" width="394px" zoomAndPan="magnify"><defs/><g><rect fill="none" height="22.6406" style="stroke:none;stroke-width:1.0;" width="361.5" x="15" y="12.4551"/><ellipse cx="76" cy="50.0957" fill="#222222" rx="10" ry="10" style="stroke:#222222;stroke-width:1.0;"/><rect fill="#F5EADC" height="35.0938" rx="12.5" ry="12.5" style="stroke:#6B5336;stroke-width:0.5;" width="110" x="21" y="80.0957"/><text fill="#000000" font-family="sans-serif" font-size="12" lengthAdjust="spacing" textLength="90" x="31" y="102.5527">understand goal</text><rect fill="#F5EADC" height="35.0938" rx="12.5" ry="12.5" style="stroke:#6B5336;stroke-width:0.5;" width="102" x="25" y="135.1895"/><text fill="#000000" font-family="sans-serif" font-size="12" lengthAdjust="spacing" textLength="82" x="35" y="157.6465">analyze context</text><rect fill="#F5EADC" height="35.0938" rx="12.5" ry="12.5" style="stroke:#6B5336;stroke-width:0.5;" width="79" x="36.5" y="300.4707"/><text fill="#000000" font-family="sans-serif" font-size="12" lengthAdjust="spacing" textLength="59" x="46.5" y="322.9277">implement</text><rect fill="#F5EADC" height="35.0938" rx="12.5" ry="12.5" style="stroke:#6B5336;stroke-width:0.5;" width="89" x="31.5" y="355.5645"/><text fill="#000000" font-family="sans-serif" font-size="12" lengthAdjust="spacing" textLength="69" x="41.5" y="378.0215">review result</text><line style="stroke:#000000;stroke-width:1.5;" x1="15" x2="15" y1="12.4551" y2="551.752"/><rect fill="#F5EADC" height="35.0938" rx="12.5" ry="12.5" style="stroke:#6B5336;stroke-width:0.5;" width="98" x="212.5" y="190.2832"/><text fill="#000000" font-family="sans-serif" font-size="12" lengthAdjust="spacing" textLength="78" x="222.5" y="212.7402">ask questions</text><rect fill="#F5EADC" height="35.0938" rx="12.5" ry="12.5" style="stroke:#6B5336;stroke-width:0.5;" width="112" x="205.5" y="245.377"/><text fill="#000000" font-family="sans-serif" font-size="12" lengthAdjust="spacing" textLength="92" x="215.5" y="267.834">validate direction</text><polygon fill="#F5EADC" points="232,410.6582,291,410.6582,303,422.6582,291,434.6582,232,434.6582,220,422.6582,232,410.6582" style="stroke:#6B5336;stroke-width:0.5;"/><text fill="#000000" font-family="sans-serif" font-size="11" lengthAdjust="spacing" textLength="59" x="232" y="427.1592">acceptable?</text><text fill="#000000" font-family="sans-serif" font-size="11" lengthAdjust="spacing" textLength="18" x="202" y="420.2412">yes</text><text fill="#000000" font-family="sans-serif" font-size="11" lengthAdjust="spacing" textLength="12" x="303" y="420.2412">no</text><rect fill="#F5EADC" height="35.0938" rx="12.5" ry="12.5" style="stroke:#6B5336;stroke-width:0.5;" width="116" x="141" y="444.6582"/><text fill="#000000" font-family="sans-serif" font-size="12" lengthAdjust="spacing" textLength="96" x="151" y="467.1152">approve next step</text><rect fill="#F5EADC" height="35.0938" rx="12.5" ry="12.5" style="stroke:#6B5336;stroke-width:0.5;" width="94" x="277" y="444.6582"/><text fill="#000000" font-family="sans-serif" font-size="12" lengthAdjust="spacing" textLength="74" x="287" y="467.1152">redirect focus</text><polygon fill="#F5EADC" points="261.5,485.752,273.5,497.752,261.5,509.752,249.5,497.752,261.5,485.752" style="stroke:#6B5336;stroke-width:0.5;"/><ellipse cx="261.5" cy="540.752" fill="none" rx="11" ry="11" style="stroke:#222222;stroke-width:1.0;"/><ellipse cx="261.5" cy="540.752" fill="#222222" rx="6" ry="6" style="stroke:#222222;stroke-width:1.0;"/><line style="stroke:#000000;stroke-width:1.5;" x1="135" x2="135" y1="12.4551" y2="551.752"/><line style="stroke:#000000;stroke-width:1.5;" x1="375" x2="375" y1="12.4551" y2="551.752"/><line style="stroke:#6B5336;stroke-width:1.0;" x1="76" x2="76" y1="60.0957" y2="80.0957"/><polygon fill="#6B5336" points="72,70.0957,76,80.0957,80,70.0957,76,74.0957" style="stroke:#6B5336;stroke-width:1.0;"/><line style="stroke:#6B5336;stroke-width:1.0;" x1="76" x2="76" y1="115.1895" y2="135.1895"/><polygon fill="#6B5336" points="72,125.1895,76,135.1895,80,125.1895,76,129.1895" style="stroke:#6B5336;stroke-width:1.0;"/><line style="stroke:#6B5336;stroke-width:1.0;" x1="76" x2="76" y1="335.5645" y2="355.5645"/><polygon fill="#6B5336" points="72,345.5645,76,355.5645,80,345.5645,76,349.5645" style="stroke:#6B5336;stroke-width:1.0;"/><line style="stroke:#6B5336;stroke-width:1.0;" x1="261.5" x2="261.5" y1="225.377" y2="245.377"/><polygon fill="#6B5336" points="257.5,235.377,261.5,245.377,265.5,235.377,261.5,239.377" style="stroke:#6B5336;stroke-width:1.0;"/><line style="stroke:#6B5336;stroke-width:1.0;" x1="220" x2="199" y1="422.6582" y2="422.6582"/><line style="stroke:#6B5336;stroke-width:1.0;" x1="199" x2="199" y1="422.6582" y2="444.6582"/><polygon fill="#6B5336" points="195,434.6582,199,444.6582,203,434.6582,199,438.6582" style="stroke:#6B5336;stroke-width:1.0;"/><line style="stroke:#6B5336;stroke-width:1.0;" x1="303" x2="324" y1="422.6582" y2="422.6582"/><line style="stroke:#6B5336;stroke-width:1.0;" x1="324" x2="324" y1="422.6582" y2="444.6582"/><polygon fill="#6B5336" points="320,434.6582,324,444.6582,328,434.6582,324,438.6582" style="stroke:#6B5336;stroke-width:1.0;"/><line style="stroke:#6B5336;stroke-width:1.0;" x1="199" x2="199" y1="479.752" y2="497.752"/><line style="stroke:#6B5336;stroke-width:1.0;" x1="199" x2="249.5" y1="497.752" y2="497.752"/><polygon fill="#6B5336" points="239.5,493.752,249.5,497.752,239.5,501.752,243.5,497.752" style="stroke:#6B5336;stroke-width:1.0;"/><line style="stroke:#6B5336;stroke-width:1.0;" x1="324" x2="324" y1="479.752" y2="497.752"/><line style="stroke:#6B5336;stroke-width:1.0;" x1="324" x2="273.5" y1="497.752" y2="497.752"/><polygon fill="#6B5336" points="283.5,493.752,273.5,497.752,283.5,501.752,279.5,497.752" style="stroke:#6B5336;stroke-width:1.0;"/><line style="stroke:#6B5336;stroke-width:1.0;" x1="261.5" x2="261.5" y1="509.752" y2="529.752"/><polygon fill="#6B5336" points="257.5,519.752,261.5,529.752,265.5,519.752,261.5,523.752" style="stroke:#6B5336;stroke-width:1.0;"/><line style="stroke:#6B5336;stroke-width:1.0;" x1="76" x2="76" y1="170.2832" y2="175.2832"/><line style="stroke:#6B5336;stroke-width:1.0;" x1="76" x2="261.5" y1="175.2832" y2="175.2832"/><line style="stroke:#6B5336;stroke-width:1.0;" x1="261.5" x2="261.5" y1="175.2832" y2="190.2832"/><polygon fill="#6B5336" points="257.5,180.2832,261.5,190.2832,265.5,180.2832,261.5,184.2832" style="stroke:#6B5336;stroke-width:1.0;"/><line style="stroke:#6B5336;stroke-width:1.0;" x1="261.5" x2="261.5" y1="280.4707" y2="285.4707"/><line style="stroke:#6B5336;stroke-width:1.0;" x1="261.5" x2="76" y1="285.4707" y2="285.4707"/><line style="stroke:#6B5336;stroke-width:1.0;" x1="76" x2="76" y1="285.4707" y2="300.4707"/><polygon fill="#6B5336" points="72,290.4707,76,300.4707,80,290.4707,76,294.4707" style="stroke:#6B5336;stroke-width:1.0;"/><line style="stroke:#6B5336;stroke-width:1.0;" x1="76" x2="76" y1="390.6582" y2="395.6582"/><line style="stroke:#6B5336;stroke-width:1.0;" x1="76" x2="261.5" y1="395.6582" y2="395.6582"/><line style="stroke:#6B5336;stroke-width:1.0;" x1="261.5" x2="261.5" y1="395.6582" y2="410.6582"/><polygon fill="#6B5336" points="257.5,400.6582,261.5,410.6582,265.5,400.6582,261.5,404.6582" style="stroke:#6B5336;stroke-width:1.0;"/><text fill="#000000" font-family="sans-serif" font-size="18" lengthAdjust="spacing" textLength="60" x="45" y="31.1406">Mentee</text><text fill="#000000" font-family="sans-serif" font-size="18" lengthAdjust="spacing" textLength="56" x="227" y="31.1406">Mentor</text><!--SRC=[XO_DJiCm48JlVegLkAJdqXwI0-BdoaDixKcnwdZDsaa9oiDZIa459DYJr_DvPfmFFYPM7cZ7zh1N6QExbo1AL_rfJFuYRbNbU1QtkyrwlRqKRV6JB_ETg8F-I_qAsu2TlI0VF0yItTzsdz1FD_IuTbjZbaV40Ymc5zPYsaf0wpawsWk7phGSESol82iLV2dT-OteKhLyeESHkNY9kR8J1- -uW9nNsFVRxYAYzKCA6EfMKSNaSIH57iCtKzzJmzOY5Tu5tAoeF25ICoEl357BAQbCe5YxK2v8dK78e2RAILTyP5ClTgoT49tlJVsUf3S0]--></g></svg>