<svg xmlns="http://www.w3.org/2000/svg" xmlns:xlink="http://www.w3.org/1999/xlink" contentStyleType="text/css" data-diagram-type="ACTIVITY" height="705px" preserveAspectRatio="none" style="width:337px;height:705px;background:#FFFFFF;" version="1.1" viewBox="0 0 337 705" width="337px" zoomAndPan="magnify"><defs/><g><rect fill="none" height="22.6406" style="stroke:none;stroke-width:1;" width="304.9321" x="15" y="12.4551"/><ellipse cx="82.519" cy="50.0957" fill="#222222" rx="10" ry="10" style="stroke:#222222;stroke-width:1;"/><rect fill="#F5EADC" height="35.0938" rx="12.5" ry="12.5" style="stroke:#6B5336;stroke-width:0.5;" width="108.0605" x="28.4888" y="80.0957"/><text fill="#000000" font-family="sans-serif" font-size="12" lengthAdjust="spacing" textLength="88.0605" x="38.4888" y="102.5527">Understand goal</text><rect fill="#F5EADC" height="35.0938" rx="12.5" ry="12.5" style="stroke:#6B5336;stroke-width:0.5;" width="104.7148" x="30.1616" y="135.1895"/><text fill="#000000" font-family="sans-serif" font-size="12" lengthAdjust="spacing" textLength="84.7148" x="40.1616" y="157.6465">Analyze context</text><rect fill="#F5EADC" height="35.0938" rx="12.5" ry="12.5" style="stroke:#6B5336;stroke-width:0.5;" width="76.0215" x="44.5083" y="344.4707"/><text fill="#000000" font-family="sans-serif" font-size="12" lengthAdjust="spacing" textLength="56.0215" x="54.5083" y="366.9277">Implement</text><rect fill="#F5EADC" height="35.0938" rx="12.5" ry="12.5" style="stroke:#6B5336;stroke-width:0.5;" width="92.0234" x="36.5073" y="399.5645"/><text fill="#000000" font-family="sans-serif" font-size="12" lengthAdjust="spacing" textLength="72.0234" x="46.5073" y="422.0215">Review result</text><line style="stroke:#000000;stroke-width:1.5;" x1="15" x2="15" y1="12.4551" y2="693.4395"/><rect fill="#F5EADC" height="35.0938" rx="12.5" ry="12.5" style="stroke:#6B5336;stroke-width:0.5;" width="94.707" x="183.7158" y="190.2832"/><text fill="#000000" font-family="sans-serif" font-size="12" lengthAdjust="spacing" textLength="74.707" x="193.7158" y="212.7402">Ask questions</text><rect fill="#F5EADC" height="35.0938" rx="12.5" ry="12.5" style="stroke:#6B5336;stroke-width:0.5;" width="112.0566" x="175.041" y="245.377"/><text fill="#000000" font-family="sans-serif" font-size="12" lengthAdjust="spacing" textLength="92.0566" x="185.041" y="267.834">Validate direction</text><rect fill="#F5EADC" height="35.0938" rx="12.5" ry="12.5" style="stroke:#6B5336;stroke-width:0.5;" width="112.7246" x="174.707" y="462.1582"/><text fill="#000000" font-family="sans-serif" font-size="12" lengthAdjust="spacing" textLength="92.7246" x="184.707" y="484.6152">Provide feedback</text><rect fill="#F5EADC" height="35.0938" rx="12.5" ry="12.5" style="stroke:#6B5336;stroke-width:0.5;" width="112.7246" x="174.707" y="517.252"/><text fill="#000000" font-family="sans-serif" font-size="12" lengthAdjust="spacing" textLength="92.7246" x="184.707" y="539.709">Validate outcome</text><polygon fill="#F5EADC" points="231.0693,300.4707,243.0693,312.4707,231.0693,324.4707,219.0693,312.4707,231.0693,300.4707" style="stroke:#6B5336;stroke-width:0.5;"/><polygon fill="#F5EADC" points="200.7979,572.3457,261.3408,572.3457,273.3408,584.3457,261.3408,596.3457,200.7979,596.3457,188.7979,584.3457,200.7979,572.3457" style="stroke:#6B5336;stroke-width:0.5;"/><text fill="#000000" font-family="sans-serif" font-size="11" lengthAdjust="spacing" textLength="60.543" x="200.7979" y="588.8467">Acceptable?</text><text fill="#000000" font-family="sans-serif" font-size="11" lengthAdjust="spacing" textLength="12.2354" x="273.3408" y="581.9287">no</text><rect fill="#F5EADC" height="35.0938" rx="12.5" ry="12.5" style="stroke:#6B5336;stroke-width:0.5;" width="154.0625" x="154.0381" y="616.3457"/><text fill="#000000" font-family="sans-serif" font-size="12" lengthAdjust="spacing" textLength="134.0625" x="164.0381" y="638.8027">Approve or redirect focus</text><ellipse cx="231.0693" cy="682.4395" fill="none" rx="11" ry="11" style="stroke:#222222;stroke-width:1;"/><ellipse cx="231.0693" cy="682.4395" fill="#222222" rx="6" ry="6" style="stroke:#222222;stroke-width:1;"/><line style="stroke:#000000;stroke-width:1.5;" x1="148.0381" x2="148.0381" y1="12.4551" y2="693.4395"/><line style="stroke:#000000;stroke-width:1.5;" x1="318.4316" x2="318.4316" y1="12.4551" y2="693.4395"/><line style="stroke:#6B5336;stroke-width:1;" x1="82.519" x2="82.519" y1="60.0957" y2="80.0957"/><polygon fill="#6B5336" points="78.519,70.0957,82.519,80.0957,86.519,70.0957,82.519,74.0957" style="stroke:#6B5336;stroke-width:1;"/><line style="stroke:#6B5336;stroke-width:1;" x1="82.519" x2="82.519" y1="115.1895" y2="135.1895"/><polygon fill="#6B5336" points="78.519,125.1895,82.519,135.1895,86.519,125.1895,82.519,129.1895" style="stroke:#6B5336;stroke-width:1;"/><line style="stroke:#6B5336;stroke-width:1;" x1="82.519" x2="82.519" y1="379.5645" y2="399.5645"/><polygon fill="#6B5336" points="78.519,389.5645,82.519,399.5645,86.519,389.5645,82.519,393.5645" style="stroke:#6B5336;stroke-width:1;"/><line style="stroke:#6B5336;stroke-width:1;" x1="231.0693" x2="231.0693" y1="225.377" y2="245.377"/><polygon fill="#6B5336" points="227.0693,235.377,231.0693,245.377,235.0693,235.377,231.0693,239.377" style="stroke:#6B5336;stroke-width:1;"/><line style="stroke:#6B5336;stroke-width:1;" x1="231.0693" x2="231.0693" y1="497.252" y2="517.252"/><polygon fill="#6B5336" points="227.0693,507.252,231.0693,517.252,235.0693,507.252,231.0693,511.252" style="stroke:#6B5336;stroke-width:1;"/><line style="stroke:#6B5336;stroke-width:1;" x1="273.3408" x2="299.4316" y1="584.3457" y2="584.3457"/><polygon fill="#6B5336" points="295.4316,454.6582,299.4316,444.6582,303.4316,454.6582,299.4316,450.6582" style="stroke:#6B5336;stroke-width:1;"/><line style="stroke:#6B5336;stroke-width:1;" x1="299.4316" x2="299.4316" y1="312.4707" y2="584.3457"/><line style="stroke:#6B5336;stroke-width:1;" x1="299.4316" x2="243.0693" y1="312.4707" y2="312.4707"/><polygon fill="#6B5336" points="253.0693,308.4707,243.0693,312.4707,253.0693,316.4707,249.0693,312.4707" style="stroke:#6B5336;stroke-width:1;"/><line style="stroke:#6B5336;stroke-width:1;" x1="231.0693" x2="231.0693" y1="552.3457" y2="572.3457"/><polygon fill="#6B5336" points="227.0693,562.3457,231.0693,572.3457,235.0693,562.3457,231.0693,566.3457" style="stroke:#6B5336;stroke-width:1;"/><line style="stroke:#6B5336;stroke-width:1;" x1="231.0693" x2="231.0693" y1="280.4707" y2="300.4707"/><polygon fill="#6B5336" points="227.0693,290.4707,231.0693,300.4707,235.0693,290.4707,231.0693,294.4707" style="stroke:#6B5336;stroke-width:1;"/><line style="stroke:#6B5336;stroke-width:1;" x1="231.0693" x2="231.0693" y1="596.3457" y2="616.3457"/><polygon fill="#6B5336" points="227.0693,606.3457,231.0693,616.3457,235.0693,606.3457,231.0693,610.3457" style="stroke:#6B5336;stroke-width:1;"/><line style="stroke:#6B5336;stroke-width:1;" x1="231.0693" x2="231.0693" y1="651.4395" y2="671.4395"/><polygon fill="#6B5336" points="227.0693,661.4395,231.0693,671.4395,235.0693,661.4395,231.0693,665.4395" style="stroke:#6B5336;stroke-width:1;"/><line style="stroke:#6B5336;stroke-width:1;" x1="82.519" x2="82.519" y1="170.2832" y2="175.2832"/><line style="stroke:#6B5336;stroke-width:1;" x1="82.519" x2="231.0693" y1="175.2832" y2="175.2832"/><line style="stroke:#6B5336;stroke-width:1;" x1="231.0693" x2="231.0693" y1="175.2832" y2="190.2832"/><polygon fill="#6B5336" points="227.0693,180.2832,231.0693,190.2832,235.0693,180.2832,231.0693,184.2832" style="stroke:#6B5336;stroke-width:1;"/><line style="stroke:#6B5336;stroke-width:1;" x1="82.519" x2="82.519" y1="434.6582" y2="444.6582"/><line style="stroke:#6B5336;stroke-width:1;" x1="82.519" x2="231.0693" y1="444.6582" y2="444.6582"/><line style="stroke:#6B5336;stroke-width:1;" x1="231.0693" x2="231.0693" y1="444.6582" y2="462.1582"/><polygon fill="#6B5336" points="227.0693,452.1582,231.0693,462.1582,235.0693,452.1582,231.0693,456.1582" style="stroke:#6B5336;stroke-width:1;"/><line style="stroke:#6B5336;stroke-width:1;" x1="231.0693" x2="231.0693" y1="324.4707" y2="329.4707"/><line style="stroke:#6B5336;stroke-width:1;" x1="231.0693" x2="82.519" y1="329.4707" y2="329.4707"/><line style="stroke:#6B5336;stroke-width:1;" x1="82.519" x2="82.519" y1="329.4707" y2="344.4707"/><polygon fill="#6B5336" points="78.519,334.4707,82.519,344.4707,86.519,334.4707,82.519,338.4707" style="stroke:#6B5336;stroke-width:1;"/><text fill="#000000" font-family="sans-serif" font-size="18" lengthAdjust="spacing" textLength="123.0381" x="20" y="31.1406">Mentee (Team)</text><text fill="#000000" font-family="sans-serif" font-size="18" lengthAdjust="spacing" textLength="56.0215" x="205.2241" y="31.1406">Mentor</text><!--SRC=[XP4zJyCm48Pt_ugJM9gvj4Coe40N1YI4WFrYNufLnsVEJa9HVZmkBIXG2JnPztuy9rtSMHzGi8C6zMuht7jpmuu5BjhFf-AtenRXyIIkczLokPwBEjd1flqrYo7vrtK6Mn4QFNDkB7RipTzrNwRVRTJIfLahDTsHJqImU2JiYad5X99K-UHpP_vx0rj6LwcozkZsxmIQi_yjLSSaovIbk8FNdcAox6EsFgEp1XE1iKBwCAsKK21CPxZojWkEkZpCkGSQB8qW57lt0t0lF5X3q1APmn7c3EwJveugTKB0-69T1jHQKqZOEBegm4POU2uKG5c7aDjoJZBek22qhFkyU4mSFW00]--></g></svg>