<?xml version="1.0" encoding="us-ascii" standalone="no"?><svg xmlns="http://www.w3.org/2000/svg" xmlns:xlink="http://www.w3.org/1999/xlink" contentStyleType="text/css" height="385px" preserveAspectRatio="none" style="width:442px;height:385px;background:#FFFFFF;" version="1.1" viewBox="0 0 442 385" width="442px" zoomAndPan="magnify"><defs/><g><!--cluster Mentoring process--><g id="cluster_Mentoring process"><rect fill="none" height="372" rx="2.5" ry="2.5" style="stroke:#181818;stroke-width:1.0;" width="197" x="94" y="7"/><text fill="#000000" font-family="sans-serif" font-size="14" font-weight="bold" lengthAdjust="spacing" textLength="134" x="125.5" y="23.5332">Mentoring process</text></g><g id="elem_UC1"><ellipse cx="192.2537" cy="346.7507" fill="#F5EADC" rx="66.7537" ry="15.7507" style="stroke:#6B5336;stroke-width:0.5;"/><text fill="#000000" font-family="sans-serif" font-size="14" lengthAdjust="spacing" textLength="78" x="150.2537" y="351.2673">Clarify goals</text></g><g id="elem_UC2"><ellipse cx="192.5677" cy="279.2135" fill="#F5EADC" rx="71.5677" ry="16.7135" style="stroke:#6B5336;stroke-width:0.5;"/><text fill="#000000" font-family="sans-serif" font-size="14" lengthAdjust="spacing" textLength="92" x="143.5677" y="283.7301">Map confusion</text></g><g id="elem_UC3"><ellipse cx="192.4202" cy="207.784" fill="#F5EADC" rx="81.9202" ry="18.784" style="stroke:#6B5336;stroke-width:0.5;"/><text fill="#000000" font-family="sans-serif" font-size="14" lengthAdjust="spacing" textLength="119" x="132.7512" y="211.5629">Build mental model</text></g><g id="elem_UC4"><ellipse cx="192.3351" cy="134.867" fill="#F5EADC" rx="82.3351" ry="18.867" style="stroke:#6B5336;stroke-width:0.5;"/><text fill="#000000" font-family="sans-serif" font-size="14" lengthAdjust="spacing" textLength="120" x="132.3351" y="138.5955">Examine reasoning</text></g><g id="elem_UC5"><ellipse cx="192.2827" cy="61.9565" fill="#F5EADC" rx="80.2827" ry="18.4565" style="stroke:#6B5336;stroke-width:0.5;"/><text fill="#000000" font-family="sans-serif" font-size="14" lengthAdjust="spacing" textLength="115" x="133.9192" y="65.9341">Commit next steps</text></g><!--entity Mentor--><g id="elem_Mentor"><ellipse cx="28" cy="177.5" fill="#EFE4D6" rx="8" ry="8" style="stroke:#6B5336;stroke-width:0.5;"/><path d="M28,185.5 L28,212.5 M15,193.5 L41,193.5 M28,212.5 L15,227.5 M28,212.5 L41,227.5 " fill="none" style="stroke:#6B5336;stroke-width:0.5;"/><text fill="#000000" font-family="sans-serif" font-size="14" lengthAdjust="spacing" textLength="44" x="6" y="243.5332">Mentor</text></g><!--entity Mentee--><g id="elem_Mentee"><ellipse cx="385" cy="177.5" fill="#EFE4D6" rx="8" ry="8" style="stroke:#6B5336;stroke-width:0.5;"/><path d="M385,185.5 L385,212.5 M372,193.5 L398,193.5 M385,212.5 L372,227.5 M385,212.5 L398,227.5 " fill="none" style="stroke:#6B5336;stroke-width:0.5;"/><text fill="#000000" font-family="sans-serif" font-size="14" lengthAdjust="spacing" textLength="47" x="361.5" y="243.5332">Mentee</text></g><!--entity JuniorMentee--><g id="elem_JuniorMentee"><ellipse cx="385" cy="290.5" fill="#EFE4D6" rx="8" ry="8" style="stroke:#6B5336;stroke-width:0.5;"/><path d="M385,298.5 L385,325.5 M372,306.5 L398,306.5 M385,325.5 L372,340.5 M385,325.5 L398,340.5 " fill="none" style="stroke:#6B5336;stroke-width:0.5;"/><text fill="#000000" font-family="sans-serif" font-size="14" lengthAdjust="spacing" textLength="89" x="340.5" y="356.5332">Junior mentee</text></g><!--entity StudentMentee--><g id="elem_StudentMentee"><ellipse cx="385" cy="64.5" fill="#EFE4D6" rx="8" ry="8" style="stroke:#6B5336;stroke-width:0.5;"/><path d="M385,72.5 L385,99.5 M372,80.5 L398,80.5 M385,99.5 L372,114.5 M385,99.5 L398,114.5 " fill="none" style="stroke:#6B5336;stroke-width:0.5;"/><text fill="#000000" font-family="sans-serif" font-size="14" lengthAdjust="spacing" textLength="100" x="335" y="130.5332">Student mentee</text></g><!--reverse link Mentee to JuniorMentee--><g id="link_Mentee_JuniorMentee"><path d="M385,265.16 C385,276.68 385,270.2 385,281.71 " fill="none" id="Mentee-backto-JuniorMentee" style="stroke:#6B5336;stroke-width:1.0;"/><polygon fill="none" points="385,247.16,379,265.16,391,265.16,385,247.16" style="stroke:#6B5336;stroke-width:1.0;"/></g><!--link StudentMentee to Mentee--><g id="link_StudentMentee_Mentee"><path d="M385,134.16 C385,145.68 385,139.2 385,150.71 " fill="none" id="StudentMentee-to-Mentee" style="stroke:#6B5336;stroke-width:1.0;"/><polygon fill="none" points="385,168.71,391,150.71,379,150.71,385,168.71" style="stroke:#6B5336;stroke-width:1.0;"/></g><!--link Mentor to UC1--><g id="link_Mentor_UC1"><path d="M41.86,247.01 C50.98,269.18 65.33,295.85 86,313 C100.51,325.04 119.38,332.85 137.13,337.89 " fill="none" id="Mentor-UC1" style="stroke:#6B5336;stroke-width:1.0;"/></g><!--link UC1 to Mentee--><g id="link_UC1_Mentee"><path d="M245.62,337.12 C263.68,331.98 283.31,324.31 299,313 C320.92,297.2 318.09,285.08 335,264 C343.33,253.62 352.89,242.53 361.34,232.98 " fill="none" id="UC1-Mentee" style="stroke:#6B5336;stroke-width:1.0;"/></g><!--link Mentor to UC2--><g id="link_Mentor_UC2"><path d="M50.22,223.14 C60.65,230.12 73.62,238.14 86,244 C104.93,252.95 126.76,260.6 145.64,266.45 " fill="none" id="Mentor-UC2" style="stroke:#6B5336;stroke-width:1.0;"/></g><!--link UC2 to Mentee--><g id="link_UC2_Mentee"><path d="M235.87,265.8 C255.24,259.55 278.41,251.76 299,244 C320.44,235.92 344.45,225.63 361.47,218.13 " fill="none" id="UC2-Mentee" style="stroke:#6B5336;stroke-width:1.0;"/></g><!--link Mentor to UC3--><g id="link_Mentor_UC3"><path d="M50.24,208 C65.82,208 88.03,208 110.25,208 " fill="none" id="Mentor-UC3" style="stroke:#6B5336;stroke-width:1.0;"/></g><!--link UC3 to Mentee--><g id="link_UC3_Mentee"><path d="M274.57,208 C306.16,208 339.89,208 361.41,208 " fill="none" id="UC3-Mentee" style="stroke:#6B5336;stroke-width:1.0;"/></g><!--link Mentor to UC4--><g id="link_Mentor_UC4"><path d="M50.18,192.46 C60.61,185.28 73.58,177.03 86,171 C103.06,162.71 122.52,155.49 140.04,149.74 " fill="none" id="Mentor-UC4" style="stroke:#6B5336;stroke-width:1.0;"/></g><!--link UC4 to Mentee--><g id="link_UC4_Mentee"><path d="M241.33,150.4 C259.5,156.49 280.32,163.76 299,171 C320.46,179.32 344.47,189.89 361.48,197.6 " fill="none" id="UC4-Mentee" style="stroke:#6B5336;stroke-width:1.0;"/></g><!--link Mentor to UC5--><g id="link_Mentor_UC5"><path d="M40.92,168.88 C49.89,145.41 64.4,116.59 86,98 C98.76,87.02 115.03,79.34 130.95,73.99 " fill="none" id="Mentor-UC5" style="stroke:#6B5336;stroke-width:1.0;"/></g><!--link UC5 to Mentee--><g id="link_UC5_Mentee"><path d="M251.85,74.55 C268.19,79.94 285.23,87.5 299,98 C321.64,115.27 317.69,128.39 335,151 C343.25,161.78 352.88,173.2 361.42,182.98 " fill="none" id="UC5-Mentee" style="stroke:#6B5336;stroke-width:1.0;"/></g><!--SRC=[VT2zJiCm40VmlKzn2dC6cgGJ2wrOa3gXFi3LlWGBnuxy8Og0TyTnt3RKKRqukll9-T_P3w46DDZ34Tb7PxHNVAUbDl3GnhEo5_5iZFvCpSsngQhDlCcSDbjjE9dxvFOtr5BDv-nWYQ6b-s-TKHQw8UHijO9m9BKEd0OZkdS7N1XYJcWrDN4C0tjIuRef4CqAnQjN8jnzR1I05gPABj-Svw4ufwcKRCJJDppzb35NcJzt5UC4vT8ZuoYeEabGJ2C8rS5WD2Dh2_YEPZn-MXCKEub6j5_GQPGsHZli7dEsnm6OLgstOL69hNEszKBoE2TAw3KdcMoLsvSJza9HY8nMgv0pqNeXfEvxuK3HoO5rD9o3Df7-NlSNjbsMbmdIlae__A-TrNf1hJDLBQWgK_M2gZFLBAZc3m00]--></g></svg>