<svg xmlns="http://www.w3.org/2000/svg" xmlns:xlink="http://www.w3.org/1999/xlink" contentStyleType="text/css" data-diagram-type="DESCRIPTION" height="318px" preserveAspectRatio="none" style="width:434px;height:318px;background:#FFFFFF;" version="1.1" viewBox="0 0 434 318" width="434px" zoomAndPan="magnify"><defs/><g><!--entity Mentor--><g class="entity" data-entity="Mentor" data-source-line="10" data-uid="ent0002" id="entity_Mentor"><ellipse cx="27.7861" cy="131" fill="#EFE4D6" rx="8" ry="8" style="stroke:#6B5336;stroke-width:0.5;"/><path d="M27.7861,139 L27.7861,166 M14.7861,147 L40.7861,147 M27.7861,166 L14.7861,181 M27.7861,166 L40.7861,181" fill="none" style="stroke:#6B5336;stroke-width:0.5;"/><text fill="#000000" font-family="sans-serif" font-size="14" lengthAdjust="spacing" textLength="43.5723" x="6" y="197.0332">Mentor</text></g><!--entity Mentee--><g class="entity" data-entity="Mentee" data-source-line="11" data-uid="ent0003" id="entity_Mentee"><ellipse cx="375.8481" cy="131" fill="#EFE4D6" rx="8" ry="8" style="stroke:#6B5336;stroke-width:0.5;"/><path d="M375.8481,139 L375.8481,166 M362.8481,147 L388.8481,147 M375.8481,166 L362.8481,181 M375.8481,166 L388.8481,181" fill="none" style="stroke:#6B5336;stroke-width:0.5;"/><text fill="#000000" font-family="sans-serif" font-size="14" lengthAdjust="spacing" textLength="46.6963" x="352.5" y="197.0332">Mentee</text></g><!--entity JuniorDev--><g class="entity" data-entity="JuniorDev" data-source-line="12" data-uid="ent0004" id="entity_JuniorDev"><ellipse cx="375.7549" cy="244" fill="#EFE4D6" rx="8" ry="8" style="stroke:#6B5336;stroke-width:0.5;"/><path d="M375.7549,252 L375.7549,279 M362.7549,260 L388.7549,260 M375.7549,279 L362.7549,294 M375.7549,279 L388.7549,294" fill="none" style="stroke:#6B5336;stroke-width:0.5;"/><text fill="#000000" font-family="sans-serif" font-size="14" lengthAdjust="spacing" textLength="103.5098" x="324" y="310.0332">Junior developer</text></g><!--entity Student--><g class="entity" data-entity="Student" data-source-line="13" data-uid="ent0005" id="entity_Student"><ellipse cx="376.1309" cy="18" fill="#EFE4D6" rx="8" ry="8" style="stroke:#6B5336;stroke-width:0.5;"/><path d="M376.1309,26 L376.1309,53 M363.1309,34 L389.1309,34 M376.1309,53 L363.1309,68 M376.1309,53 L389.1309,68" fill="none" style="stroke:#6B5336;stroke-width:0.5;"/><text fill="#000000" font-family="sans-serif" font-size="14" lengthAdjust="spacing" textLength="48.2617" x="352" y="84.0332">Student</text></g><!--entity UC1--><g class="entity" data-entity="UC1" data-source-line="18" data-uid="ent0009" id="entity_UC1"><ellipse cx="186.9666" cy="296.4517" fill="#F5EADC" rx="57.4666" ry="15.4517" style="stroke:#6B5336;stroke-width:0.5;"/><text fill="#000000" font-family="sans-serif" font-size="14" lengthAdjust="spacing" textLength="77.0273" x="148.4529" y="301.7564">Clarify goals</text></g><!--entity UC2--><g class="entity" data-entity="UC2" data-source-line="19" data-uid="ent0010" id="entity_UC2"><ellipse cx="186.8309" cy="230.6662" fill="#F5EADC" rx="66.3309" ry="15.6662" style="stroke:#6B5336;stroke-width:0.5;"/><text fill="#000000" font-family="sans-serif" font-size="14" lengthAdjust="spacing" textLength="91.0547" x="141.3035" y="235.9709">Map confusion</text></g><!--entity UC3--><g class="entity" data-entity="UC3" data-source-line="20" data-uid="ent0011" id="entity_UC3"><ellipse cx="187.0404" cy="161.3081" fill="#F5EADC" rx="77.0404" ry="17.8081" style="stroke:#6B5336;stroke-width:0.5;"/><text fill="#000000" font-family="sans-serif" font-size="14" lengthAdjust="spacing" textLength="119.0615" x="127.5096" y="166.6128">Build mental model</text></g><!--entity UC4--><g class="entity" data-entity="UC4" data-source-line="21" data-uid="ent0012" id="entity_UC4"><ellipse cx="186.9507" cy="91.6901" fill="#F5EADC" rx="73.9507" ry="17.1901" style="stroke:#6B5336;stroke-width:0.5;"/><text fill="#000000" font-family="sans-serif" font-size="14" lengthAdjust="spacing" textLength="111.2822" x="131.3095" y="96.9948">Review reasoning</text></g><!--entity UC5--><g class="entity" data-entity="UC5" data-source-line="22" data-uid="ent0013" id="entity_UC5"><ellipse cx="187.0386" cy="22.7077" fill="#F5EADC" rx="71.5386" ry="16.7077" style="stroke:#6B5336;stroke-width:0.5;"/><text fill="#000000" font-family="sans-serif" font-size="14" lengthAdjust="spacing" textLength="105.0615" x="134.5079" y="28.0124">Agree next steps</text></g><!--reverse link Mentee to JuniorDev--><g class="link" data-entity-1="Mentee" data-entity-2="JuniorDev" data-source-line="15" data-uid="lnk6" id="link_Mentee_JuniorDev"><path d="M376,218.66 C376,230.18 376,223.7 376,235.21" fill="none" id="Mentee-backto-JuniorDev" style="stroke:#6B5336;stroke-width:1;"/><polygon fill="none" points="376,200.66,370,218.66,382,218.66,376,200.66" style="stroke:#6B5336;stroke-width:1;"/></g><!--link Student to Mentee--><g class="link" data-entity-1="Student" data-entity-2="Mentee" data-source-line="16" data-uid="lnk8" id="link_Student_Mentee"><path d="M376,87.66 C376,99.18 376,92.7 376,104.21" fill="none" id="Student-to-Mentee" style="stroke:#6B5336;stroke-width:1;"/><polygon fill="none" points="376,122.21,382,104.21,370,104.21,376,122.21" style="stroke:#6B5336;stroke-width:1;"/></g><!--link Mentor to UC1--><g class="link" data-entity-1="Mentor" data-entity-2="UC1" data-source-line="24" data-uid="lnk14" id="link_Mentor_UC1"><path d="M50.28,196.35 C64.9,217.97 85.96,245.05 110,263.5 C121.64,272.43 136.07,279.49 149.22,284.74" fill="none" id="Mentor-UC1" style="stroke:#6B5336;stroke-width:1;"/></g><!--link UC1 to Mentee--><g class="link" data-entity-1="UC1" data-entity-2="Mentee" data-source-line="25" data-uid="lnk16" id="link_UC1_Mentee"><path d="M222.91,284.19 C236.28,278.76 251.34,271.73 264,263.5 C297.79,241.53 331.1,209.08 352.27,186.71" fill="none" id="UC1-Mentee" style="stroke:#6B5336;stroke-width:1;"/></g><!--link Mentor to UC2--><g class="link" data-entity-1="Mentor" data-entity-2="UC2" data-source-line="26" data-uid="lnk17" id="link_Mentor_UC2"><path d="M50.17,170.81 C77.13,182.65 123.9,203.21 154.9,216.83" fill="none" id="Mentor-UC2" style="stroke:#6B5336;stroke-width:1;"/></g><!--link UC2 to Mentee--><g class="link" data-entity-1="UC2" data-entity-2="Mentee" data-source-line="27" data-uid="lnk19" id="link_UC2_Mentee"><path d="M223.61,217.36 C261.55,203.36 320.45,181.63 352.45,169.82" fill="none" id="UC2-Mentee" style="stroke:#6B5336;stroke-width:1;"/></g><!--link Mentor to UC3--><g class="link" data-entity-1="Mentor" data-entity-2="UC3" data-source-line="28" data-uid="lnk20" id="link_Mentor_UC3"><path d="M50.17,161.5 C65.74,161.5 87.92,161.5 109.86,161.5" fill="none" id="Mentor-UC3" style="stroke:#6B5336;stroke-width:1;"/></g><!--link UC3 to Mentee--><g class="link" data-entity-1="UC3" data-entity-2="Mentee" data-source-line="29" data-uid="lnk22" id="link_UC3_Mentee"><path d="M264.06,161.5 C295.81,161.5 330.34,161.5 352.3,161.5" fill="none" id="UC3-Mentee" style="stroke:#6B5336;stroke-width:1;"/></g><!--link Mentor to UC4--><g class="link" data-entity-1="Mentor" data-entity-2="UC4" data-source-line="30" data-uid="lnk23" id="link_Mentor_UC4"><path d="M50.17,152.06 C76.37,140.38 121.3,120.35 152.27,106.54" fill="none" id="Mentor-UC4" style="stroke:#6B5336;stroke-width:1;"/></g><!--link UC4 to Mentee--><g class="link" data-entity-1="UC4" data-entity-2="Mentee" data-source-line="31" data-uid="lnk25" id="link_UC4_Mentee"><path d="M226.75,106 C264.72,120.22 321.31,141.4 352.44,153.06" fill="none" id="UC4-Mentee" style="stroke:#6B5336;stroke-width:1;"/></g><!--link Mentor to UC5--><g class="link" data-entity-1="Mentor" data-entity-2="UC5" data-source-line="32" data-uid="lnk26" id="link_Mentor_UC5"><path d="M50.14,125.7 C64.71,103.46 85.76,75.59 110,56.5 C120.56,48.18 133.48,41.42 145.65,36.18" fill="none" id="Mentor-UC5" style="stroke:#6B5336;stroke-width:1;"/></g><!--link UC5 to Mentee--><g class="link" data-entity-1="UC5" data-entity-2="Mentee" data-source-line="33" data-uid="lnk28" id="link_UC5_Mentee"><path d="M226.04,36.54 C238.61,41.94 252.34,48.71 264,56.5 C297.96,79.2 331.23,112.59 352.35,135.59" fill="none" id="UC5-Mentee" style="stroke:#6B5336;stroke-width:1;"/></g><!--SRC=[VT0xRy8m403WFR_YHESCpOEf2z2f4aihVe29Bwc5uulEDhHIVtmDII0luSNItUTxs9wKQGIB6ewYE5LCtiWTQM9uAMydidUnOQPBbrmVypHT3vE58zuII-JdPDe6Iypaa1qi5iBYyrezcWsTev15544u6ai7Ze1LzUr0AiR2AJ9jKbo7WJsQS4q2Y8F0wiCR5Mw9PzJK8Az0M6Y3xtWUo2_dPNZTbc_hmDjVVEiUJruyqjSXu_5Rt-u6gvqMhCfVg4XeU-jxsBsEoLuqK90flGsRTIGPawrNMa8ToWiDDKdKdKl7xXFF2Y_0A2mPPQfEPMErgJWCRl37WNNOz6FbZxN3LyJnVT9kqzWturYlaWMLp5IweDAPoXPKDbFvWih_0G00]--></g></svg>